<svg width="88" height="88" viewBox="0 0 88 88" fill="none" xmlns="http://www.w3.org/2000/svg">
<path d="M41.1716 72.8284C42.7337 74.3905 45.2663 74.3905 46.8284 72.8284L72.2843 47.3726C73.8464 45.8105 73.8464 43.2778 72.2843 41.7157C70.7222 40.1536 68.1895 40.1536 66.6274 41.7157L44 64.3431L21.3726 41.7157C19.8105 40.1536 17.2778 40.1536 15.7157 41.7157C14.1536 43.2778 14.1536 45.8105 15.7157 47.3726L41.1716 72.8284ZM40 0L40 70H48L48 0L40 0Z" fill="#D9D9D9"/>
<line y1="84" x2="88" y2="84" stroke="#D9D9D9" stroke-width="8"/>
<line x1="4" y1="63" x2="4" y2="88" stroke="#D9D9D9" stroke-width="8"/>
<line x1="84" y1="63" x2="84" y2="88" stroke="#D9D9D9" stroke-width="8"/>
</svg>
