<svg width="88" height="92" viewBox="0 0 88 92" fill="none" xmlns="http://www.w3.org/2000/svg">
<path d="M46.8284 1.17157C45.2663 -0.390524 42.7337 -0.390524 41.1716 1.17157L15.7157 26.6274C14.1536 28.1895 14.1536 30.7222 15.7157 32.2843C17.2778 33.8464 19.8105 33.8464 21.3726 32.2843L44 9.65685L66.6274 32.2843C68.1895 33.8464 70.7222 33.8464 72.2843 32.2843C73.8464 30.7222 73.8464 28.1895 72.2843 26.6274L46.8284 1.17157ZM48 74L48 4H40L40 74H48Z" fill="#D9D9D9"/>
<line y1="88" x2="88" y2="88" stroke="#D9D9D9" stroke-width="8"/>
<line x1="4" y1="67" x2="4" y2="92" stroke="#D9D9D9" stroke-width="8"/>
<line x1="84" y1="67" x2="84" y2="92" stroke="#D9D9D9" stroke-width="8"/>
</svg>
